<svg width="44" height="44" viewBox="0 0 44 44" fill="none" xmlns="http://www.w3.org/2000/svg">
<rect width="44" height="44" rx="14" fill="#001223"/>
<path fill-rule="evenodd" clip-rule="evenodd" d="M13.0185 13.0185C11.9985 14.0386 11.9985 15.6924 13.0185 16.7125L18.5596 22.2535L13.0187 27.7943C11.9987 28.8144 11.9987 30.4682 13.0187 31.4883C14.0388 32.5083 15.6926 32.5083 16.7127 31.4883L22.2535 25.9474L27.7943 31.4883C28.8144 32.5083 30.4682 32.5083 31.4883 31.4883C32.5083 30.4682 32.5083 28.8144 31.4883 27.7943L25.9474 22.2535L31.4885 16.7125C32.5085 15.6924 32.5085 14.0386 31.4885 13.0185C30.4684 11.9985 28.8146 11.9985 27.7945 13.0185L22.2535 18.5596L16.7125 13.0185C15.6924 11.9985 14.0386 11.9985 13.0185 13.0185Z" fill="white"/>
</svg>
