<svg width="40" height="37" viewBox="0 0 40 37" fill="none" xmlns="http://www.w3.org/2000/svg">
<path d="M29.0144 0.486755C25.0567 0.486755 22.0212 2.71163 19.9999 6.02257C17.9783 2.71103 14.9426 0.486755 10.9855 0.486755C7.9193 0.486755 5.12158 1.78099 3.108 4.13099C1.21232 6.34361 0.168213 9.29841 0.168213 12.4513C0.168213 15.8795 1.45403 19.0489 4.21461 22.4256C6.63504 25.3862 10.1098 28.4317 14.1334 31.9584C15.6209 33.2622 17.1591 34.6104 18.7938 36.0817C19.1367 36.3902 19.5683 36.5444 19.9999 36.5444C20.4316 36.5444 20.8632 36.3902 21.2061 36.0816C22.8408 34.6103 24.3789 33.2621 25.8665 31.9583C29.8901 28.4317 33.3649 25.386 35.7853 22.4255C38.5459 19.049 39.8317 15.8795 39.8317 12.4513C39.8317 6.00454 35.4149 0.486755 29.0144 0.486755Z" fill="url(#paint0_linear_137_832)"/>
<defs>
<linearGradient id="paint0_linear_137_832" x1="19.9999" y1="36.5444" x2="19.9999" y2="0.486755" gradientUnits="userSpaceOnUse">
<stop stop-color="#FD3A84"/>
<stop offset="1" stop-color="#FFA68D"/>
</linearGradient>
</defs>
</svg>
