<svg width="34" height="34" viewBox="0 0 34 34" fill="none" xmlns="http://www.w3.org/2000/svg">
<g opacity="0.5">
<path d="M17 34C26.3888 34 34 26.3888 34 17C34 7.61116 26.3888 0 17 0C7.61116 0 0 7.61116 0 17C0 26.3888 7.61116 34 17 34Z" fill="url(#paint0_linear_278_1842)"/>
<path d="M17 31C24.732 31 31 24.732 31 17C31 9.26801 24.732 3 17 3C9.26801 3 3 9.26801 3 17C3 24.732 9.26801 31 17 31Z" fill="white" fill-opacity="0.3"/>
<path fill-rule="evenodd" clip-rule="evenodd" d="M17.2786 8.08479C17.1101 7.97174 16.8899 7.97174 16.7214 8.08479L9.36416 13.0208C8.95397 13.296 9.14878 13.936 9.64273 13.936H24.3573C24.8512 13.936 25.046 13.296 24.6358 13.0208L17.2786 8.08479ZM11 15.4423C11 15.1662 11.2239 14.9423 11.5 14.9423H12.5C12.7761 14.9423 13 15.1662 13 15.4423V20.4804C13 20.7566 12.7761 20.9804 12.5 20.9804H11.5C11.2239 20.9804 11 20.7566 11 20.4804V15.4423ZM9 22.4868C9 22.2106 9.22386 21.9868 9.5 21.9868H24.5C24.7761 21.9868 25 22.2106 25 22.4868V23.4995C25 23.7756 24.7761 23.9995 24.5 23.9995H9.5C9.22386 23.9995 9 23.7756 9 23.4995V22.4868ZM16 15.4423C16 15.1662 16.2239 14.9423 16.5 14.9423H17.5C17.7761 14.9423 18 15.1662 18 15.4423V20.4804C18 20.7566 17.7761 20.9804 17.5 20.9804H16.5C16.2239 20.9804 16 20.7566 16 20.4804V15.4423ZM21.5 14.9423C21.2239 14.9423 21 15.1662 21 15.4423V20.4804C21 20.7566 21.2239 20.9804 21.5 20.9804H22.5C22.7761 20.9804 23 20.7566 23 20.4804V15.4423C23 15.1662 22.7761 14.9423 22.5 14.9423H21.5Z" fill="white"/>
</g>
<defs>
<linearGradient id="paint0_linear_278_1842" x1="17" y1="34" x2="14.819" y2="0.140486" gradientUnits="userSpaceOnUse">
<stop stop-color="#393939"/>
<stop offset="1" stop-color="#8D8D8D"/>
</linearGradient>
</defs>
</svg>
