<svg width="24" height="25" viewBox="0 0 24 25" fill="none" xmlns="http://www.w3.org/2000/svg">
<path d="M12 0.909088C5.37188 0.909088 0 6.28096 0 12.9091C0 19.5372 5.37188 24.9091 12 24.9091C18.6281 24.9091 24 19.5372 24 12.9091C24 6.28096 18.6281 0.909088 12 0.909088ZM19.5 7.22315L18.3047 8.3669C18.2016 8.4419 18.15 8.57315 18.1688 8.69971V17.1185C18.15 17.245 18.2016 17.3763 18.3047 17.4513L19.4719 18.595V18.8435H13.5891V18.5903L14.8031 17.4185C14.9203 17.3013 14.9203 17.2638 14.9203 17.0857V10.2888L11.55 18.8247H11.0953L7.17188 10.2888V16.0169C7.13906 16.256 7.21875 16.4997 7.3875 16.6732L8.9625 18.581V18.8341H4.5V18.5857L6.075 16.6778C6.24375 16.4997 6.31875 16.2513 6.27188 16.0122V9.39346C6.29063 9.21065 6.22031 9.02784 6.08438 8.90596L4.6875 7.22315V6.97003H9.03281L12.3937 14.3247L15.3469 6.97003H19.5V7.22315Z" fill="white"/>
</svg>
