<svg width="44" height="44" viewBox="0 0 44 44" fill="none" xmlns="http://www.w3.org/2000/svg">
<rect width="44" height="44" rx="14" fill="white" fill-opacity="0.1"/>
<path fill-rule="evenodd" clip-rule="evenodd" d="M14 31C12.8954 31 12 30.1046 12 29C12 27.8954 12.8954 27 14 27L26 27C27.1046 27 28 27.8954 28 29C28 30.1046 27.1046 31 26 31L14 31ZM14 17C12.8954 17 12 16.1046 12 15C12 13.8954 12.8954 13 14 13L26 13C27.1046 13 28 13.8954 28 15C28 16.1046 27.1046 17 26 17L14 17ZM12 22C12 23.1046 12.8954 24 14 24L30 24C31.1046 24 32 23.1046 32 22C32 20.8954 31.1046 20 30 20L14 20C12.8954 20 12 20.8954 12 22Z" fill="url(#paint0_linear_278_579)"/>
<defs>
<linearGradient id="paint0_linear_278_579" x1="53.445" y1="40.0714" x2="8.65215" y2="-5.89919" gradientUnits="userSpaceOnUse">
<stop stop-color="#017D91"/>
<stop offset="1" stop-color="#05AC5C"/>
</linearGradient>
</defs>
</svg>
