<svg width="44" height="44" viewBox="0 0 44 44" fill="none" xmlns="http://www.w3.org/2000/svg">
<path d="M44 22C44 9.84974 34.1503 0 22 0C9.84974 0 0 9.84974 0 22C0 34.1503 9.84974 44 22 44C34.1503 44 44 34.1503 44 22Z" fill="url(#paint0_linear_142_1144)"/>
<path fill-rule="evenodd" clip-rule="evenodd" d="M17.4389 20.9252V16.7652C18.7887 17.0074 20.3007 17.1561 22.0003 17.1561C23.6999 17.1561 25.2114 17.0074 26.5617 16.7652V20.9252H17.4389ZM22.0003 26.8434C20.3007 26.8434 18.7887 26.9921 17.4389 27.2348V23.0743H26.5617V27.2348C25.2114 26.9921 23.6999 26.8434 22.0003 26.8434ZM29.648 15.9641C29.6667 15.9573 29.685 15.9501 29.7037 15.9434C31.0655 15.4647 32.1792 14.8962 33.0654 14.334C33.4863 14.0673 33.7334 13.5977 33.7334 13.0997C33.7334 12.2938 32.8346 11.8232 32.1686 12.277C31.16 12.9644 29.7349 13.7003 27.804 14.2242C27.7454 14.24 27.6898 14.2573 27.6308 14.2726C27.3635 14.3422 27.0847 14.4064 26.7982 14.4669C26.7114 14.4856 26.6221 14.5024 26.5338 14.5197C26.2963 14.5671 26.0521 14.6103 25.8016 14.6506C25.7253 14.6626 25.6509 14.676 25.5732 14.6876C25.2474 14.7355 24.9115 14.7782 24.5636 14.8137C24.5036 14.8195 24.4412 14.8238 24.3803 14.8295C24.0794 14.8578 23.7695 14.8804 23.4518 14.8981C23.3621 14.9029 23.2724 14.9082 23.1812 14.9121C22.7983 14.9288 22.4072 14.9404 22.0003 14.9404C21.5943 14.9404 21.2047 14.9288 20.8232 14.9121C20.7278 14.9082 20.6347 14.9029 20.5416 14.8977C20.2359 14.8804 19.9379 14.8588 19.6481 14.8315C19.5737 14.8247 19.4979 14.8195 19.425 14.8123C19.0886 14.7777 18.7647 14.7365 18.449 14.69C18.3449 14.6746 18.2451 14.6573 18.1428 14.6405C17.9312 14.606 17.7244 14.5691 17.5224 14.5297C17.401 14.5062 17.2791 14.4827 17.1611 14.4573C16.9562 14.4132 16.7575 14.3661 16.5627 14.3177C16.3823 14.2726 16.2076 14.2256 16.0354 14.1771C14.1899 13.6576 12.8176 12.9452 11.8368 12.2789C11.1683 11.8242 10.2667 12.2924 10.2667 13.1007C10.2667 13.5981 10.5134 14.0668 10.9332 14.3335C11.8185 14.8948 12.9298 15.4623 14.2888 15.9406C14.3113 15.9487 14.3329 15.9573 14.3564 15.9655C14.6285 16.06 14.913 16.1492 15.2038 16.2365V20.9252H14.2163C13.7768 20.9252 13.4202 21.2816 13.4202 21.721C13.4202 22.4684 14.0268 23.0743 14.7739 23.0743H15.2038V27.763C14.913 27.8503 14.6285 27.94 14.3564 28.034C14.3329 28.0422 14.3113 28.0508 14.2888 28.0594C12.9298 28.5377 11.8185 29.1047 10.9332 29.6665C10.5134 29.9327 10.2667 30.4014 10.2667 30.8993C10.2667 31.7072 11.1683 32.1753 11.8368 31.7211C12.8176 31.0543 14.1899 30.3424 16.0354 29.8224C16.2076 29.7739 16.3823 29.7269 16.5627 29.6818C16.7575 29.6334 16.9562 29.5864 17.1611 29.5422C17.2791 29.5168 17.401 29.4933 17.5224 29.4698C17.7244 29.4305 17.9312 29.3935 18.1428 29.3595C18.2451 29.3427 18.3449 29.3249 18.449 29.3096C18.7647 29.263 19.0886 29.2218 19.425 29.1877C19.4979 29.18 19.5737 29.1748 19.6481 29.1681C19.9379 29.1412 20.2359 29.1191 20.5416 29.1019C20.6347 29.0971 20.7278 29.0918 20.8232 29.0875C21.2047 29.0707 21.5943 29.0592 22.0003 29.0592C22.4072 29.0592 22.7983 29.0707 23.1812 29.0875C23.2724 29.0913 23.3621 29.0966 23.4518 29.1014C23.7695 29.1191 24.0794 29.1417 24.3803 29.17C24.4412 29.1757 24.5036 29.18 24.5636 29.1858C24.9115 29.2213 25.2474 29.264 25.5732 29.3124C25.6509 29.324 25.7253 29.3369 25.8016 29.3494C26.0521 29.3892 26.2963 29.4329 26.5338 29.4799C26.6221 29.4971 26.7114 29.5144 26.7982 29.5326C27.0847 29.5931 27.3635 29.6574 27.6308 29.7269C27.6898 29.7423 27.7454 29.76 27.804 29.7754C29.7349 30.2997 31.16 31.0356 32.1686 31.723C32.8346 32.1768 33.7334 31.7062 33.7334 30.9003C33.7334 30.4019 33.4863 29.9322 33.0654 29.6655C32.1792 29.1033 31.0655 28.5348 29.7037 28.0561C29.685 28.0494 29.6667 28.0422 29.648 28.0359C29.375 27.941 29.089 27.8508 28.7963 27.763V23.0743H29.7838C30.2233 23.0743 30.5799 22.7179 30.5799 22.2785C30.5799 21.5311 29.9738 20.9252 29.2258 20.9252H28.7963V16.2365C29.089 16.1492 29.375 16.059 29.648 15.9641Z" fill="white"/>
<defs>
<linearGradient id="paint0_linear_142_1144" x1="22" y1="0" x2="22" y2="44" gradientUnits="userSpaceOnUse">
<stop stop-color="#006CF1"/>
<stop offset="1" stop-color="#0064E0"/>
</linearGradient>
</defs>
</svg>
