<svg width="44" height="44" viewBox="0 0 44 44" fill="none" xmlns="http://www.w3.org/2000/svg">
<mask id="mask0_142_1227" style="mask-type:alpha" maskUnits="userSpaceOnUse" x="0" y="0" width="44" height="44">
<path d="M22 44C34.1503 44 44 34.1503 44 22C44 9.84974 34.1503 0 22 0C9.84974 0 0 9.84974 0 22C0 34.1503 9.84974 44 22 44Z" fill="white"/>
</mask>
<g mask="url(#mask0_142_1227)">
<path d="M22 44C34.1503 44 44 34.1503 44 22C44 9.84974 34.1503 0 22 0C9.84974 0 0 9.84974 0 22C0 34.1503 9.84974 44 22 44Z" fill="#003B83"/>
<mask id="mask1_142_1227" style="mask-type:alpha" maskUnits="userSpaceOnUse" x="8" y="11" width="28" height="7">
<path d="M8.80005 11H35.2V17.5772H8.80005V11Z" fill="white"/>
</mask>
<g mask="url(#mask1_142_1227)">
<path fill-rule="evenodd" clip-rule="evenodd" d="M9.54985 13.4817C10.5458 14.1053 11.7961 14.7358 13.3248 15.2673C13.3502 15.2763 13.3745 15.2859 13.4009 15.295C13.707 15.4 14.0271 15.4991 14.3543 15.5961V17.3462C14.8159 17.1282 15.3189 17.0179 15.8596 17.0179C16.2169 17.0179 16.5534 17.0617 16.8687 17.1484V16.1835C18.3873 16.4527 20.0883 16.6179 22.0003 16.6179C23.9124 16.6179 25.6128 16.4527 27.1319 16.1835V17.5772C27.4472 17.3223 27.8496 17.1689 28.288 17.1689H29.6458V15.5961C29.9751 15.4991 30.2968 15.3989 30.604 15.2934C30.6251 15.2859 30.6456 15.2779 30.6666 15.2705C32.1986 14.7385 33.4516 14.1069 34.4486 13.4822C34.9221 13.1859 35.2001 12.664 35.2001 12.1108C35.2001 11.2153 34.189 10.6924 33.4397 11.1966C32.305 11.9605 30.7017 12.7781 28.5295 13.3602C28.4636 13.3777 28.401 13.3969 28.3346 13.414C28.0339 13.4913 27.7203 13.5627 27.398 13.6299C27.3003 13.6506 27.1999 13.6693 27.1006 13.6885C26.8333 13.7412 26.5586 13.7892 26.2768 13.834C26.191 13.8473 26.1073 13.8622 26.0198 13.875C25.6533 13.9284 25.2754 13.9758 24.884 14.0152C24.8166 14.0216 24.7464 14.0264 24.6778 14.0328C24.3393 14.0642 23.9906 14.0893 23.6333 14.109C23.5323 14.1144 23.4314 14.1202 23.3288 14.1245C22.898 14.1431 22.4581 14.1559 22.0003 14.1559C21.5437 14.1559 21.1053 14.1431 20.6761 14.1245C20.5687 14.1202 20.464 14.1144 20.3593 14.1085C20.0154 14.0893 19.6801 14.0653 19.3541 14.0349C19.2704 14.0275 19.1851 14.0216 19.1031 14.0136C18.7247 13.9752 18.3603 13.9294 18.0051 13.8777C17.8879 13.8607 17.7757 13.8415 17.6607 13.8228C17.4226 13.7844 17.19 13.7434 16.9627 13.6997C16.8261 13.6735 16.689 13.6474 16.5562 13.6192C16.3257 13.5701 16.1022 13.5179 15.8831 13.4641C15.6801 13.414 15.4836 13.3617 15.2898 13.3079C13.2136 12.7307 11.6697 11.9391 10.5663 11.1988C9.81436 10.6935 8.80005 11.2137 8.80005 12.1118C8.80005 12.6645 9.07752 13.1853 9.54985 13.4817Z" fill="white"/>
</g>
<mask id="mask2_142_1227" style="mask-type:alpha" maskUnits="userSpaceOnUse" x="8" y="26" width="28" height="7">
<path d="M8.80005 26.4283H35.2V33H8.80005V26.4283Z" fill="white"/>
</mask>
<g mask="url(#mask2_142_1227)">
<path fill-rule="evenodd" clip-rule="evenodd" d="M34.4486 30.5172C33.4516 29.8926 32.1986 29.2609 30.6666 28.729C30.6456 28.7215 30.6251 28.7136 30.604 28.7066C30.2968 28.6011 29.9751 28.5009 29.6458 28.4033V26.8364H28.288C27.8496 26.8364 27.4471 26.6832 27.1318 26.4283V27.8165C25.6128 27.5468 23.9124 27.3815 22.0003 27.3815C20.0882 27.3815 18.3873 27.5468 16.8687 27.8165V26.8508C16.5606 26.938 16.2332 26.9822 15.887 26.9822C15.3349 26.9822 14.823 26.8706 14.3543 26.6512V28.4033C14.0271 28.5003 13.707 28.6 13.4009 28.7045C13.3745 28.7136 13.3502 28.7232 13.3248 28.7327C11.7961 29.2641 10.5458 29.8941 9.54985 30.5183C9.07747 30.8141 8.80005 31.3349 8.80005 31.8881C8.80005 32.7858 9.81436 33.306 10.5663 32.8012C11.6697 32.0603 13.2136 31.2693 15.2898 30.6915C15.4836 30.6377 15.6801 30.5855 15.8831 30.5354C16.1022 30.4815 16.3257 30.4293 16.5562 30.3803C16.689 30.352 16.8261 30.3259 16.9627 30.2998C17.19 30.2561 17.4226 30.215 17.6607 30.1772C17.7757 30.1585 17.8879 30.1388 18.0051 30.1217C18.3603 30.07 18.7247 30.0242 19.1031 29.9864C19.1851 29.9778 19.2704 29.972 19.3541 29.9645C19.6801 29.9347 20.0154 29.9101 20.3592 29.8909C20.464 29.8856 20.5687 29.8798 20.6761 29.875C21.1053 29.8563 21.5436 29.8435 22.0003 29.8435C22.4581 29.8435 22.898 29.8563 23.3288 29.875C23.4314 29.8792 23.5323 29.8851 23.6333 29.8904C23.9906 29.9101 24.3393 29.9352 24.6778 29.9666C24.7464 29.973 24.8166 29.9778 24.884 29.9842C25.2754 30.0237 25.6533 30.0711 26.0198 30.1249C26.1073 30.1377 26.191 30.1521 26.2768 30.166C26.5586 30.2102 26.8333 30.2587 27.1006 30.311C27.1999 30.3301 27.3003 30.3493 27.398 30.3696C27.7203 30.4367 28.0339 30.5082 28.3346 30.5855C28.401 30.6025 28.4636 30.6222 28.5295 30.6393C30.7017 31.2219 32.305 32.0395 33.4397 32.8033C34.189 33.3075 35.2001 32.7847 35.2001 31.8892C35.2001 31.3354 34.9221 30.8136 34.4486 30.5172Z" fill="white"/>
</g>
<path fill-rule="evenodd" clip-rule="evenodd" d="M15.8706 19.4032C15.5667 19.4032 15.1458 19.5478 14.8668 20.2368C14.6906 20.6493 14.6043 21.2263 14.6043 21.9973C14.6043 22.7521 14.6848 23.33 14.8504 23.7641C15.1113 24.4479 15.5253 24.5914 15.8269 24.5914C16.0777 24.5914 16.5391 24.485 16.8115 23.7725C16.9798 23.3529 17.0658 22.771 17.0658 22.0459C17.0658 21.3923 17.0658 19.4032 15.8706 19.4032ZM15.887 25.9318C15.1593 25.9318 14.5517 25.6718 14.0293 25.1368C13.3582 24.445 13.0177 23.3686 13.0177 21.938C13.0177 20.574 13.3736 19.526 14.0754 18.8232C14.5834 18.3152 15.167 18.0682 15.8596 18.0682C16.7083 18.0682 17.3653 18.4013 17.8683 19.0867C18.3922 19.8007 18.6579 20.7909 18.6579 22.0297C18.6579 23.211 18.3869 24.1773 17.8524 24.9018C17.3421 25.5949 16.6992 25.9318 15.887 25.9318Z" fill="white"/>
<path fill-rule="evenodd" clip-rule="evenodd" d="M24.6735 25.7861C24.3008 25.7861 23.9634 25.5541 23.8342 25.2088L23.8317 25.2023L21.8045 21.3964V24.0423V25.0944C21.8045 25.4758 21.4903 25.7861 21.1041 25.7861C20.7179 25.7861 20.4037 25.4758 20.4037 25.0944V19.1109C20.4037 18.6193 20.8087 18.2193 21.3064 18.2193C21.677 18.2193 22.0154 18.4487 22.1487 18.7901L22.1508 18.7954L24.2319 22.8171C24.2319 22.8171 24.1677 20.0467 24.1677 19.7096V18.9111C24.1677 18.5296 24.4819 18.2193 24.8681 18.2193C25.2543 18.2193 25.5685 18.5296 25.5685 18.9111V24.9022C25.5685 25.3896 25.167 25.7861 24.6735 25.7861Z" fill="white"/>
<path fill-rule="evenodd" clip-rule="evenodd" d="M28.288 25.7861C27.8656 25.7861 27.522 25.4468 27.522 25.0295V18.9759C27.522 18.5587 27.8656 18.2193 28.288 18.2193H30.4158C30.7282 18.2193 30.9823 18.4703 30.9823 18.7789V18.8544C30.9823 19.163 30.7282 19.414 30.4158 19.414H29.0266V21.3918H30.2136C30.5261 21.3918 30.7802 21.6429 30.7802 21.9514C30.7802 22.26 30.5261 22.511 30.2136 22.511H29.0266V24.5482H30.4158C30.7282 24.5482 30.9823 24.7993 30.9823 25.1078V25.2265C30.9823 25.5351 30.7282 25.7861 30.4158 25.7861H28.288Z" fill="white"/>
</g>
</svg>
