<svg width="28" height="30" viewBox="0 0 28 30" fill="none" xmlns="http://www.w3.org/2000/svg">
<path fill-rule="evenodd" clip-rule="evenodd" d="M4 0C1.79086 0 0 1.79086 0 4V12C0 14.2091 1.79086 16 4 16H8C10.2091 16 12 14.2091 12 12V4C12 1.79086 10.2091 0 8 0H4ZM4 20C1.79086 20 0 21.7909 0 24V26C0 28.2091 1.79086 30 4 30H8C10.2091 30 12 28.2091 12 26V24C12 21.7909 10.2091 20 8 20H4ZM16 4C16 1.79086 17.7909 0 20 0H24C26.2091 0 28 1.79086 28 4V6C28 8.20914 26.2091 10 24 10H20C17.7909 10 16 8.20914 16 6V4ZM20 14C17.7909 14 16 15.7909 16 18V26C16 28.2091 17.7909 30 20 30H24C26.2091 30 28 28.2091 28 26V18C28 15.7909 26.2091 14 24 14H20Z" fill="url(#paint0_linear_278_1870)"/>
<defs>
<linearGradient id="paint0_linear_278_1870" x1="14" y1="30" x2="11.9394" y2="0.142211" gradientUnits="userSpaceOnUse">
<stop stop-color="#0056E0"/>
<stop offset="1" stop-color="#57C5E0"/>
</linearGradient>
</defs>
</svg>
