<svg width="25" height="19" viewBox="0 0 25 19" fill="none" xmlns="http://www.w3.org/2000/svg">
<path d="M21.6028 4.69578C21.6028 4.89771 21.6028 5.11226 21.6028 5.32682C21.5888 7.13664 21.2146 8.92572 20.5017 10.5906C19.7888 12.2554 18.7514 13.7629 17.4495 15.0259C16.1477 16.2888 14.6072 17.2821 12.9173 17.9482C11.2274 18.6144 9.42157 18.9402 7.60438 18.9068C4.91814 18.9189 2.28276 18.1776 0 16.7675C0.395739 16.8086 0.793484 16.8276 1.19136 16.8243C3.40111 16.8318 5.55203 16.1156 7.31288 14.7861C6.29369 14.7755 5.30282 14.4507 4.47665 13.8563C3.65049 13.2619 3.02965 12.4271 2.69956 11.4668C3.44077 11.5937 4.20038 11.5658 4.93017 11.3848C3.82724 11.1789 2.83019 10.5983 2.10908 9.74216C1.38798 8.88599 0.987491 7.80724 0.975901 6.68986V6.63305C1.6605 7.01219 2.424 7.22818 3.20651 7.26409C2.53525 6.83753 1.98221 6.25006 1.59803 5.5555C1.21386 4.86094 1.01084 4.0815 1.00758 3.28856C1.00258 2.43854 1.23515 1.60389 1.6793 0.877985C2.93662 2.36423 4.48945 3.57504 6.23994 4.43412C7.99042 5.2932 9.90062 5.78193 11.8502 5.8695C11.6908 5.15719 11.6959 4.41815 11.8651 3.70809C12.0343 2.99803 12.3631 2.33549 12.8269 1.77041C13.2906 1.20532 13.8771 0.752436 14.5422 0.445909C15.2073 0.139381 15.9335 -0.0127995 16.6663 0.00084253C17.3385 -0.00376348 18.0047 0.127531 18.6244 0.386768C19.2442 0.646005 19.8047 1.02779 20.272 1.50902C21.3733 1.30556 22.4319 0.917207 23.4025 0.360539C23.0287 1.47112 22.2571 2.40565 21.2352 2.98565C22.2146 2.878 23.173 2.62931 24.0805 2.24735C23.4012 3.19852 22.5632 4.02666 21.6028 4.69578Z" fill="#009CF4"/>
</svg>
