<svg width="61" height="60" viewBox="0 0 61 60" fill="none" xmlns="http://www.w3.org/2000/svg">
<g clip-path="url(#clip0_18_69)">
<path d="M30.4391 0.624512C13.8754 0.624512 0.442871 14.1095 0.442871 30.7445C0.442871 44.0495 9.03787 55.337 20.9629 59.3233C22.4629 59.6008 23.0104 58.6708 23.0104 57.872C23.0104 57.1558 22.9841 55.262 22.9691 52.7495C14.6254 54.5683 12.8629 48.7108 12.8629 48.7108C11.5016 45.2308 9.53287 44.3045 9.53287 44.3045C6.80662 42.437 9.73537 42.4745 9.73537 42.4745C12.7466 42.6883 14.3291 45.5795 14.3291 45.5795C17.0066 50.1808 21.3529 48.8533 23.0629 48.0808C23.3329 46.1345 24.1091 44.807 24.9679 44.0533C18.3079 43.292 11.3029 40.7083 11.3029 29.1695C11.3029 25.8808 12.4729 23.192 14.3929 21.0845C14.0816 20.3233 13.0541 17.2595 14.6854 13.1158C14.6854 13.1158 17.2054 12.3058 22.9354 16.202C25.3279 15.5345 27.8929 15.2008 30.4466 15.1895C32.9929 15.2045 35.5616 15.5345 37.9579 16.2058C43.6841 12.3095 46.2004 13.1195 46.2004 13.1195C47.8354 17.267 46.8079 20.327 46.5004 21.0883C48.4241 23.1958 49.5829 25.8845 49.5829 29.1733C49.5829 40.742 42.5704 43.2883 35.8879 44.0345C36.9641 44.9645 37.9241 46.802 37.9241 49.6108C37.9241 53.6383 37.8866 56.8858 37.8866 57.872C37.8866 58.6783 38.4266 59.6158 39.9491 59.3195C51.8554 55.3295 60.4429 44.0458 60.4429 30.7445C60.4429 14.1095 47.0104 0.624512 30.4391 0.624512Z" fill="white"/>
</g>
<defs>
<clipPath id="clip0_18_69">
<rect width="60" height="60" fill="white" transform="translate(0.442871)"/>
</clipPath>
</defs>
</svg>
