<svg width="60" height="60" viewBox="0 0 60 60" fill="none" xmlns="http://www.w3.org/2000/svg">
<path d="M30 0C13.4297 0 0 13.4297 0 30C0 46.5703 13.4297 60 30 60C46.5703 60 60 46.5703 60 30C60 13.4297 46.5703 0 30 0ZM48.75 15.7852L45.7617 18.6445C45.5039 18.832 45.375 19.1602 45.4219 19.4766V40.5234C45.375 40.8398 45.5039 41.168 45.7617 41.3555L48.6797 44.2148V44.8359H33.9727V44.2031L37.0078 41.2734C37.3008 40.9805 37.3008 40.8867 37.3008 40.4414V23.4492L28.875 44.7891H27.7383L17.9297 23.4492V37.7695C17.8477 38.3672 18.0469 38.9766 18.4688 39.4102L22.4062 44.1797V44.8125H11.25V44.1914L15.1875 39.4219C15.6094 38.9766 15.7969 38.3555 15.6797 37.7578V21.2109C15.7266 20.7539 15.5508 20.2969 15.2109 19.9922L11.7188 15.7852V15.1523H22.582L30.9844 33.5391L38.3672 15.1523H48.75V15.7852Z" fill="black"/>
</svg>
