<svg width="61" height="60" viewBox="0 0 61 60" fill="none" xmlns="http://www.w3.org/2000/svg">
<mask id="mask0_10_248" style="mask-type:alpha" maskUnits="userSpaceOnUse" x="0" y="0" width="61" height="60">
<path d="M30.4429 0C13.8741 0 0.442871 13.4315 0.442871 30C0.442871 46.5688 13.8741 60 30.4429 60C47.0114 60 60.4429 46.5688 60.4429 30C60.4429 13.4315 47.0114 0 30.4429 0Z" fill="white"/>
</mask>
<g mask="url(#mask0_10_248)">
<path fill-rule="evenodd" clip-rule="evenodd" d="M30.4429 0C13.8741 0 0.442871 13.4315 0.442871 30C0.442871 46.5688 13.8741 60 30.4429 60C47.0114 60 60.4429 46.5688 60.4429 30C60.4429 13.4315 47.0114 0 30.4429 0Z" fill="url(#paint0_linear_10_248)"/>
<path fill-rule="evenodd" clip-rule="evenodd" d="M24.9427 41.7499C23.9707 41.7499 24.1361 41.383 23.8008 40.4574L20.9427 31.0517L42.9427 18" fill="#C8DAEA"/>
<path fill-rule="evenodd" clip-rule="evenodd" d="M24.9429 41.75C25.6929 41.75 26.0242 41.407 26.4429 41L30.443 37.1106L25.4534 34.1018" fill="#A9C9DD"/>
</g>
<mask id="mask1_10_248" style="mask-type:alpha" maskUnits="userSpaceOnUse" x="12" y="16" width="34" height="28">
<path d="M43.0932 16.2259L14.1956 27.3687C12.2232 28.1599 12.2349 29.2604 13.8362 29.7507L21.252 32.0654L38.4202 21.2342C39.2306 20.7427 39.9746 21.0067 39.3642 21.5487L25.453 34.1024L37.543 43.0347C38.9227 43.7959 39.9182 43.4017 40.2619 41.754L45.1832 18.5631C45.5844 16.9539 44.8574 16.0449 43.878 16.0449C43.6279 16.0449 43.3616 16.1042 43.0932 16.2259Z" fill="white"/>
</mask>
<g mask="url(#mask1_10_248)">
<path fill-rule="evenodd" clip-rule="evenodd" d="M43.0932 16.2259L14.1956 27.3687C12.2232 28.1599 12.2349 29.2604 13.8362 29.7507L21.252 32.0654L38.4202 21.2342C39.2306 20.7427 39.9746 21.0067 39.3642 21.5487L25.453 34.1024L37.543 43.0347C38.9227 43.7959 39.9182 43.4017 40.2619 41.754L45.1832 18.5631C45.5844 16.9539 44.8574 16.0449 43.878 16.0449C43.6279 16.0449 43.3616 16.1042 43.0932 16.2259Z" fill="url(#paint1_linear_10_248)"/>
</g>
<defs>
<linearGradient id="paint0_linear_10_248" x1="39.2362" y1="9.49398" x2="24.2362" y2="44.474" gradientUnits="userSpaceOnUse">
<stop stop-color="#36AEE2"/>
<stop offset="1" stop-color="#1D95C8"/>
</linearGradient>
<linearGradient id="paint1_linear_10_248" x1="32.5523" y1="29.0234" x2="37.4534" y2="36.8791" gradientUnits="userSpaceOnUse">
<stop stop-color="#EFF6FB"/>
<stop offset="1" stop-color="white"/>
</linearGradient>
</defs>
</svg>
