<svg width="67" height="52" viewBox="0 0 67 52" fill="none" xmlns="http://www.w3.org/2000/svg">
<path d="M59.4076 12.9134C59.4076 13.4687 59.4076 14.0587 59.4076 14.6487C59.3693 19.6258 58.3401 24.5457 56.3796 29.124C54.4192 33.7023 51.5663 37.848 47.9862 41.3211C44.4061 44.7942 40.1699 47.5257 35.5226 49.3577C30.8753 51.1896 25.9093 52.0855 20.912 51.9936C13.5249 52.0271 6.27759 49.9883 0 46.1107C1.08828 46.2237 2.18208 46.2759 3.27623 46.2669C9.35305 46.2873 15.2681 44.3178 20.1104 40.6617C17.3076 40.6328 14.5827 39.7395 12.3108 38.1048C10.0388 36.4701 8.33153 34.1745 7.42379 31.5337C9.46212 31.8828 11.5511 31.806 13.558 31.3081C10.5249 30.7419 7.78302 29.1454 5.79998 26.7909C3.81695 24.4365 2.7156 21.4699 2.68373 18.3971V18.2409C4.56636 19.2835 6.666 19.8775 8.81791 19.9762C6.97194 18.8032 5.45107 17.1877 4.39459 15.2776C3.33812 13.3676 2.77982 11.2241 2.77084 9.04353C2.75708 6.70598 3.39667 4.41071 4.61807 2.41446C8.0757 6.50164 12.346 9.83137 17.1598 12.1938C21.9737 14.5563 27.2267 15.9003 32.588 16.1411C32.1497 14.1823 32.1637 12.1499 32.629 10.1972C33.0943 8.24458 33.9986 6.42261 35.2739 4.86863C36.5492 3.31464 38.1621 2.0692 39.9911 1.22625C41.82 0.383298 43.8172 -0.0351985 45.8322 0.00231696C47.6808 -0.0103496 49.5128 0.35071 51.2172 1.06361C52.9216 1.77651 54.463 2.82643 55.748 4.14982C58.7766 3.59029 61.6876 2.52232 64.3568 0.991482C63.3288 4.04557 61.2071 6.61553 58.3969 8.21054C61.09 7.91449 63.7257 7.23059 66.2215 6.1802C64.3534 8.79593 62.0487 11.0733 59.4076 12.9134Z" fill="#009CF4"/>
</svg>
