<svg width="34" height="34" viewBox="0 0 34 34" fill="none" xmlns="http://www.w3.org/2000/svg">
<path fill-rule="evenodd" clip-rule="evenodd" d="M17.1902 5.54248C17.4988 5.23223 17.5854 4.76367 17.408 4.36364C17.2306 3.96308 16.8257 3.71287 16.388 3.73252C9.34203 4.05287 3.71875 9.87484 3.71875 17C3.71875 24.3301 9.66981 30.2812 17 30.2812C24.1251 30.2812 29.9471 24.6579 30.2674 17.6119C30.2871 17.1742 30.0369 16.7694 29.6363 16.592C29.2363 16.4145 28.7677 16.5011 28.4575 16.8098C27.0167 18.2404 25.0325 19.125 22.8438 19.125C18.4455 19.125 14.875 15.5544 14.875 11.1562C14.875 8.96746 15.7595 6.98323 17.1902 5.54248ZM24.828 9.172L23.8388 6.53326C23.6831 6.11835 23.2868 5.84371 22.8438 5.84371C22.4007 5.84371 22.0044 6.11835 21.8487 6.53326L20.8595 9.172L18.2208 10.1612C17.8059 10.3168 17.5312 10.7131 17.5312 11.1562C17.5312 11.5993 17.8059 11.9956 18.2208 12.1512L20.8595 13.1404L21.8487 15.7792C22.0044 16.1941 22.4007 16.4687 22.8438 16.4687C23.2868 16.4687 23.6831 16.1941 23.8388 15.7792L24.828 13.1404L27.4667 12.1512C27.8816 11.9956 28.1562 11.5993 28.1562 11.1562C28.1562 10.7131 27.8816 10.3168 27.4667 10.1612L24.828 9.172Z" fill="url(#paint0_linear_31_2)"/>
<defs>
<linearGradient id="paint0_linear_31_2" x1="1.09677e-06" y1="-3.84804e-05" x2="34" y2="34" gradientUnits="userSpaceOnUse">
<stop stop-color="#AE76DA"/>
<stop offset="1" stop-color="#251EE5"/>
</linearGradient>
</defs>
</svg>
