<svg width="25" height="19" viewBox="0 0 25 19" fill="none" xmlns="http://www.w3.org/2000/svg">
<path d="M20.473 1.57015C18.8919 0.825154 17.2227 0.297257 15.5081 0C15.2759 0.437418 15.0651 0.8866 14.8766 1.34584C13.0511 1.05424 11.1929 1.05424 9.36742 1.34584C9.17596 0.884185 8.95782 0.434764 8.71415 0C6.99555 0.291299 5.32462 0.827289 3.74931 1.59258C0.613628 6.41518 -0.23562 11.1032 0.178116 15.7464C2.01523 17.1599 4.07892 18.2304 6.27528 18.9091C6.77185 18.2247 7.20904 17.4966 7.58182 16.7333C6.86957 16.4655 6.18409 16.1275 5.53491 15.7239C5.70912 15.5893 5.86155 15.4548 6.03575 15.3202C7.94142 16.2507 10.024 16.7334 12.1329 16.7334C14.2418 16.7334 16.3244 16.2507 18.2301 15.3202C18.4043 15.4548 18.5567 15.5893 18.7309 15.7239C18.0742 16.1277 17.3815 16.4657 16.6622 16.7333C17.035 17.4966 17.4722 18.2247 17.9688 18.9091C20.1633 18.2257 22.2262 17.1556 24.0659 15.7464C24.545 10.363 23.1949 5.6974 20.473 1.57015ZM8.10443 12.8752C6.90678 12.8752 5.94865 11.7537 5.94865 10.3854C5.94865 9.01715 6.90678 7.87318 8.10443 7.87318C9.30209 7.87318 10.282 8.99472 10.282 10.3854C10.282 11.7761 9.32387 12.8752 8.10443 12.8752ZM16.1179 12.8752C14.9202 12.8752 13.9621 11.7537 13.9621 10.3854C13.9621 9.01715 14.9202 7.87318 16.1179 7.87318C17.3155 7.87318 18.2954 8.99472 18.2736 10.3854C18.2519 11.7761 17.3155 12.8752 16.1179 12.8752Z" fill="#5D67CD"/>
</svg>
