<svg width="64" height="64" viewBox="0 0 64 64" fill="none" xmlns="http://www.w3.org/2000/svg">
<path d="M32 64C49.6731 64 64 49.6731 64 32C64 14.3269 49.6731 0 32 0C14.3269 0 0 14.3269 0 32C0 49.6731 14.3269 64 32 64Z" fill="#001223"/>
<g opacity="0.5">
<path d="M32 49C41.3888 49 49 41.3888 49 32C49 22.6112 41.3888 15 32 15C22.6112 15 15 22.6112 15 32C15 41.3888 22.6112 49 32 49Z" fill="url(#paint0_linear_125_442)"/>
<path d="M32 46C39.732 46 46 39.732 46 32C46 24.268 39.732 18 32 18C24.268 18 18 24.268 18 32C18 39.732 24.268 46 32 46Z" fill="white" fill-opacity="0.3"/>
<path fill-rule="evenodd" clip-rule="evenodd" d="M32.2786 23.0848C32.1101 22.9717 31.8899 22.9717 31.7214 23.0848L24.3642 28.0208C23.954 28.296 24.1488 28.936 24.6427 28.936H39.3573C39.8512 28.936 40.046 28.296 39.6358 28.0208L32.2786 23.0848ZM26 30.4423C26 30.1662 26.2239 29.9423 26.5 29.9423H27.5C27.7761 29.9423 28 30.1662 28 30.4423V35.4804C28 35.7566 27.7761 35.9804 27.5 35.9804H26.5C26.2239 35.9804 26 35.7566 26 35.4804V30.4423ZM24 37.4868C24 37.2106 24.2239 36.9868 24.5 36.9868H39.5C39.7761 36.9868 40 37.2106 40 37.4868V38.4995C40 38.7756 39.7761 38.9995 39.5 38.9995H24.5C24.2239 38.9995 24 38.7756 24 38.4995V37.4868ZM31 30.4423C31 30.1662 31.2239 29.9423 31.5 29.9423H32.5C32.7761 29.9423 33 30.1662 33 30.4423V35.4804C33 35.7566 32.7761 35.9804 32.5 35.9804H31.5C31.2239 35.9804 31 35.7566 31 35.4804V30.4423ZM36.5 29.9423C36.2239 29.9423 36 30.1662 36 30.4423V35.4804C36 35.7566 36.2239 35.9804 36.5 35.9804H37.5C37.7761 35.9804 38 35.7566 38 35.4804V30.4423C38 30.1662 37.7761 29.9423 37.5 29.9423H36.5Z" fill="white"/>
</g>
<defs>
<linearGradient id="paint0_linear_125_442" x1="32" y1="49" x2="29.819" y2="15.1405" gradientUnits="userSpaceOnUse">
<stop stop-color="#393939"/>
<stop offset="1" stop-color="#8D8D8D"/>
</linearGradient>
</defs>
</svg>
