<svg width="234" height="138" viewBox="0 0 234 138" fill="none" xmlns="http://www.w3.org/2000/svg">
<rect opacity="0.25" x="92" y="39.4609" width="87.5" height="87.3481" rx="30" fill="#007994"/>
<g clip-path="url(#clip0_128_620)">
<path d="M158.147 73.6889H112.658C110.36 73.6889 108.5 71.8316 108.5 69.5381C108.5 67.2445 110.36 65.3872 112.658 65.3872H154.328C156.436 65.3872 158.147 67.0952 158.147 69.1993V73.6889Z" fill="#2A0C6A"/>
<path d="M147.306 70.9476C147.306 64.0553 141.71 58.4663 134.803 58.4663C127.896 58.4663 122.3 64.0553 122.3 70.9476C122.3 74.5071 123.795 77.7164 126.188 79.9899H143.415C145.81 77.7164 147.303 74.5071 147.303 70.9476H147.306Z" fill="url(#paint0_linear_128_620)"/>
<path d="M145.474 70.9475C145.474 65.0657 140.698 60.2977 134.806 60.2977C128.914 60.2977 124.135 65.0657 124.135 70.9475C124.135 74.7625 126.145 78.1096 129.167 79.9898H140.442C143.461 78.1096 145.474 74.7625 145.474 70.9475Z" fill="url(#paint1_linear_128_620)"/>
<path d="M108.5 69.5381V103.764C108.5 106.058 110.36 107.915 112.658 107.915H158.06C160.168 107.915 161.879 106.207 161.879 104.103V77.501C161.879 75.3969 160.168 73.6889 158.06 73.6889L114.864 72.2909C112.566 72.2909 108.5 71.8316 108.5 69.5381Z" fill="url(#paint2_linear_128_620)"/>
<path d="M112.445 71.9522C110.645 71.9522 109.112 70.8183 108.514 69.228C108.506 69.3314 108.5 69.4347 108.5 69.5381V69.5381C108.5 71.8317 110.36 73.6889 112.658 73.6889H158.147V71.9522H112.445Z" fill="#250D5A"/>
<path d="M153.56 96.0536H161.649C162.621 96.0536 163.406 95.267 163.406 94.2996V87.482C163.406 86.5118 162.618 85.7281 161.649 85.7281H153.56C150.702 85.7281 148.387 88.0389 148.387 90.8923C148.387 93.7456 150.702 96.0564 153.56 96.0564V96.0536Z" fill="#270965"/>
<path d="M154.285 94.7618C156.384 94.7618 158.086 93.0628 158.086 90.9669C158.086 88.871 156.384 87.172 154.285 87.172C152.185 87.172 150.483 88.871 150.483 90.9669C150.483 93.0628 152.185 94.7618 154.285 94.7618Z" fill="#210E4B"/>
<path d="M154.259 93.2748C155.55 93.2748 156.597 92.23 156.597 90.9411C156.597 89.6521 155.55 88.6073 154.259 88.6073C152.968 88.6073 151.921 89.6521 151.921 90.9411C151.921 92.23 152.968 93.2748 154.259 93.2748Z" fill="url(#paint3_linear_128_620)"/>
</g>
<rect x="208" y="84.8819" width="26" height="25.9549" rx="12.9774" fill="#1069BE" fill-opacity="0.25"/>
<g clip-path="url(#clip1_128_620)">
<path d="M194.379 80.9045H195.258V81.7819C195.258 82.2668 195.651 82.6592 196.137 82.6592C196.623 82.6592 197.016 82.2668 197.016 81.7819V80.9045H197.895C198.38 80.9045 198.773 80.5121 198.773 80.0271C198.773 79.5421 198.38 79.1497 197.895 79.1497H197.016V78.2723C197.016 77.7874 196.623 77.395 196.137 77.395C195.651 77.395 195.258 77.7874 195.258 78.2723V79.1497H194.379C193.893 79.1497 193.5 79.5421 193.5 80.0271C193.5 80.5121 193.893 80.9045 194.379 80.9045ZM219.105 80.9045H219.984V81.7819C219.984 82.2668 220.377 82.6592 220.863 82.6592C221.349 82.6592 221.742 82.2668 221.742 81.7819V80.9045H222.621C223.107 80.9045 223.5 80.5121 223.5 80.0271C223.5 79.5421 223.107 79.1497 222.621 79.1497H221.742V78.2723C221.742 77.7874 221.349 77.395 220.863 77.395C220.377 77.395 219.984 77.7874 219.984 78.2723V79.1497H219.105C218.62 79.1497 218.227 79.5421 218.227 80.0271C218.227 80.5121 218.62 80.9045 219.105 80.9045ZM197.895 103.833H197.016V102.956C197.016 102.471 196.623 102.079 196.137 102.079C195.651 102.079 195.258 102.471 195.258 102.956V103.833H194.379C193.893 103.833 193.5 104.226 193.5 104.711C193.5 105.196 193.893 105.588 194.379 105.588H195.258V106.465C195.258 106.95 195.651 107.343 196.137 107.343C196.623 107.343 197.016 106.95 197.016 106.465V105.588H197.895C198.38 105.588 198.773 105.196 198.773 104.711C198.773 104.226 198.38 103.833 197.895 103.833ZM218.468 101.08C220.318 98.9705 221.5 96.2145 221.698 93.2463L219.984 92.3689L221.698 91.4915C221.5 88.5233 220.318 85.7673 218.468 83.6583L217.152 83.7311L217.225 82.4176C215.113 80.5707 212.352 79.3912 209.379 79.1942L208.5 80.9045L207.621 79.1942C204.648 79.3912 201.887 80.5708 199.775 82.4176L199.848 83.7311L198.532 83.6583C196.682 85.7673 195.5 88.5233 195.302 91.4915L197.016 92.3689L195.302 93.2463C195.5 96.2145 196.682 98.9705 198.532 101.08L199.848 101.007L199.775 102.32C201.887 104.167 204.648 105.347 207.621 105.544L208.5 103.833L209.379 105.544C212.352 105.347 215.113 104.167 217.225 102.32L217.152 101.007L218.468 101.08ZM222.621 103.833H221.742V102.956C221.742 102.471 221.349 102.079 220.863 102.079C220.377 102.079 219.984 102.471 219.984 102.956V103.833H219.105C218.62 103.833 218.227 104.226 218.227 104.711C218.227 105.196 218.62 105.588 219.105 105.588H219.984V106.465C219.984 106.95 220.377 107.343 220.863 107.343C221.349 107.343 221.742 106.95 221.742 106.465V105.588H222.621C223.107 105.588 223.5 105.196 223.5 104.711C223.5 104.226 223.107 103.833 222.621 103.833Z" fill="url(#paint4_linear_128_620)"/>
<path d="M197.895 91.4915H195.302C195.283 91.7828 195.258 92.0728 195.258 92.3689C195.258 92.6651 195.283 92.955 195.302 93.2463H197.895C198.38 93.2463 198.773 92.8539 198.773 92.3689C198.773 91.884 198.38 91.4915 197.895 91.4915ZM201.606 85.4859C201.949 85.1432 201.949 84.5879 201.606 84.2452L199.775 82.4176C199.333 82.8035 198.918 83.2175 198.532 83.6583L200.363 85.4859C200.706 85.8286 201.262 85.8286 201.606 85.4859ZM208.5 82.6592C208.986 82.6592 209.379 82.2668 209.379 81.7819V79.1942C209.087 79.1748 208.797 79.1497 208.5 79.1497C208.203 79.1497 207.913 79.1748 207.621 79.1942V81.7819C207.621 82.2668 208.014 82.6592 208.5 82.6592ZM216.637 85.4859L218.468 83.6583C218.082 83.2175 217.667 82.8035 217.225 82.4176L215.394 84.2452C215.051 84.5879 215.051 85.1432 215.394 85.4859C215.737 85.8286 216.294 85.8286 216.637 85.4859ZM208.5 84.414C204.138 84.414 200.531 88.0146 200.531 92.3689C200.531 96.7232 204.138 100.324 208.5 100.324C212.862 100.324 216.469 96.7232 216.469 92.3689C216.469 88.0146 212.862 84.414 208.5 84.414ZM212.457 91.9122L211.116 93.2172L211.434 95.0602C211.49 95.3892 211.355 95.7217 211.083 95.9179C210.822 96.1083 210.464 96.1453 210.158 95.9847L208.5 95.115L206.842 95.9847C206.546 96.1406 206.188 96.1149 205.916 95.9178C205.645 95.7216 205.51 95.3892 205.566 95.0601L205.884 93.2171L204.543 91.9122C204.303 91.6791 204.217 91.3304 204.32 91.0134C204.423 90.6955 204.699 90.4641 205.029 90.4162L206.883 90.1471L207.712 88.4712C208.007 87.8714 208.993 87.8714 209.288 88.4712L210.117 90.1471L211.971 90.4162C212.301 90.4641 212.577 90.6955 212.68 91.0134C212.783 91.3305 212.697 91.6792 212.457 91.9122ZM215.394 99.252C215.051 99.5947 215.051 100.15 215.394 100.493L217.225 102.32C217.667 101.934 218.082 101.52 218.468 101.08L216.637 99.252C216.294 98.9092 215.738 98.9092 215.394 99.252ZM200.363 99.252L198.532 101.08C198.918 101.52 199.333 101.934 199.775 102.32L201.606 100.493C201.949 100.15 201.949 99.5947 201.606 99.252C201.263 98.9093 200.706 98.9092 200.363 99.252ZM221.698 91.4915H219.105C218.62 91.4915 218.227 91.884 218.227 92.3689C218.227 92.8539 218.62 93.2463 219.105 93.2463H221.698C221.717 92.955 221.742 92.6651 221.742 92.3689C221.742 92.0728 221.717 91.7828 221.698 91.4915ZM208.5 102.079C208.014 102.079 207.621 102.471 207.621 102.956V105.544C207.913 105.563 208.203 105.588 208.5 105.588C208.797 105.588 209.087 105.563 209.379 105.544V102.956C209.379 102.471 208.986 102.079 208.5 102.079Z" fill="url(#paint5_linear_128_620)"/>
</g>
<rect opacity="0.25" x="162" y="17" width="50" height="49.9132" rx="20" fill="#8048D0"/>
<g clip-path="url(#clip2_128_620)">
<path d="M200.047 49.3009C200.047 49.4097 199.989 49.5094 199.895 49.5632L199.258 49.9289L187 42.8635L174.761 49.9295L174.126 49.5632C174.032 49.5094 173.975 49.4102 173.975 49.3021L173.953 34.6128C173.953 34.504 174.011 34.4042 174.105 34.3504L186.86 27.0232C186.954 26.9694 187.069 26.9694 187.162 27.0232L187.615 27.285L187.606 41.5337L200.046 48.7037L200.047 49.3009Z" fill="#6D81D5"/>
<path d="M200.006 49.4531C199.979 49.4984 199.942 49.5365 199.895 49.5631L187.141 56.8902C187.047 56.944 186.932 56.944 186.838 56.8902L174.126 49.5631C174.079 49.5365 174.041 49.4978 174.015 49.4531L187 41.9567L200.006 49.4531Z" fill="#2944AE"/>
<path d="M200.006 49.4531C199.979 49.4984 199.942 49.5365 199.895 49.5631L187.141 56.8902C187.047 56.944 186.932 56.944 186.838 56.8902L174.126 49.5631C174.079 49.5365 174.041 49.4978 174.015 49.4531L187 41.9567L200.006 49.4531Z" fill="#2944AE"/>
<path d="M194.146 46.0748V46.0887L187.455 49.9575C187.174 50.1203 186.826 50.1203 186.545 49.9575L179.854 46.0887V46.082L187 41.9567L194.146 46.0748Z" fill="#213993" fill-opacity="0.5"/>
<path d="M200.006 49.4531C199.979 49.4984 199.942 49.5365 199.895 49.5631L187.141 56.8902C187.047 56.944 186.932 56.944 186.838 56.8902L185.504 56.1213L196.617 49.7377C196.819 49.6217 196.819 49.3303 196.617 49.2137L185.514 42.815V42.8144L187 41.9567L200.006 49.4531Z" fill="#213993" fill-opacity="0.5"/>
<path d="M200.047 49.3007C200.047 49.3551 200.032 49.4071 200.006 49.4525L187 41.9567L187.011 26.9826C187.063 26.9826 187.115 26.9959 187.162 27.0231L199.874 34.3502C199.968 34.404 200.026 34.5038 200.026 34.6113L200.047 49.3007Z" fill="#5169CD"/>
<path d="M187.303 41.8183V48.648L187.152 48.7356C187.058 48.79 186.942 48.79 186.848 48.7356L181.217 45.4788C181.123 45.425 181.065 45.3253 181.065 45.2177V38.5621L187 41.9936L187.303 41.8183Z" fill="#2FA573"/>
<path d="M192.935 38.5621V45.2176C192.935 45.3252 192.877 45.425 192.784 45.4788L187.152 48.7355C187.104 48.7627 187.052 48.776 187 48.776V41.9936L192.935 38.5621Z" fill="#3CC454"/>
<path d="M181.218 38.2966L186.846 35.0426C186.941 34.9875 187.059 34.9875 187.154 35.0426L192.782 38.2968C192.986 38.4149 192.986 38.7094 192.782 38.8275L187.154 42.0816C187.059 42.1367 186.941 42.1367 186.846 42.0816L181.218 38.8274C181.014 38.7093 181.014 38.4148 181.218 38.2966Z" fill="#58D66E"/>
</g>
<mask id="mask0_128_620" style="mask-type:alpha" maskUnits="userSpaceOnUse" x="0" y="29" width="109" height="109">
<path d="M54.3086 138C84.3024 138 108.617 113.648 108.617 83.6081C108.617 53.5683 84.3024 29.2162 54.3086 29.2162C24.3148 29.2162 0 53.5683 0 83.6081C0 113.648 24.3148 138 54.3086 138Z" fill="url(#paint6_linear_128_620)"/>
</mask>
<g mask="url(#mask0_128_620)">
<path d="M54.3086 138.355C84.3024 138.355 108.617 114.003 108.617 83.9634C108.617 53.9236 84.3024 29.5715 54.3086 29.5715C24.3148 29.5715 0 53.9236 0 83.9634C0 114.003 24.3148 138.355 54.3086 138.355Z" fill="url(#paint7_linear_128_620)"/>
<g filter="url(#filter0_d_128_620)">
<path d="M82.9649 129.816C86.481 119.842 88.1071 104.109 74.7876 89.1064C61.4711 74.1004 54.3055 59.9306 54.3055 59.9306L53.8679 29.2256C24.0789 29.4587 0 53.7143 0 83.6081C0 113.502 24.3147 138 54.3086 138C64.8289 138 74.6479 135.001 82.9649 129.816Z" fill="url(#paint8_linear_128_620)" shape-rendering="crispEdges"/>
</g>
<g filter="url(#filter1_d_128_620)">
<path d="M38.4256 100.774C18.0429 73.9326 36.8026 52.3685 36.8026 52.3685L45.1413 29.9933C19.5138 34.3539 0 56.6981 0 83.6081C0 113.648 24.3147 138 54.3086 138C63.15 138 71.4949 135.883 78.8716 132.129C71.8021 116.971 58.8084 127.616 38.4225 100.774H38.4256Z" fill="url(#paint9_linear_128_620)"/>
</g>
<g filter="url(#filter2_d_128_620)">
<path d="M87.9706 -0.203722C87.9706 -0.203722 69.2869 -2.24892 54.1527 8.89014C39.0185 -2.24892 20.3348 -0.203722 20.3348 -0.203722C20.3348 -0.203722 14.039 19.1562 24.5516 36.8072C36.7232 57.2437 53.8129 58.7028 53.8129 58.7028C53.921 58.6966 54.0353 58.6812 54.1527 58.6627C54.2701 58.6812 54.3844 58.6966 54.4925 58.7028C54.4925 58.7028 71.5822 57.2437 83.7538 36.8072C94.2695 19.1562 87.9706 -0.203722 87.9706 -0.203722Z" fill="black"/>
</g>
</g>
<mask id="mask1_128_620" style="mask-type:alpha" maskUnits="userSpaceOnUse" x="18" y="0" width="72" height="60">
<path d="M87.8153 0.147535C87.8153 0.147535 69.1316 -1.89766 53.9974 9.2414C38.8633 -1.89766 20.1795 0.147535 20.1795 0.147535C20.1795 0.147535 13.8837 19.5075 24.3964 37.1585C36.568 57.595 53.6576 59.0541 53.6576 59.0541C53.7657 59.0479 53.88 59.0325 53.9974 59.014C54.1148 59.0325 54.2291 59.0479 54.3372 59.0541C54.3372 59.0541 71.4269 57.595 83.5985 37.1585C94.1143 19.5075 87.8153 0.147535 87.8153 0.147535Z" fill="white"/>
</mask>
<g mask="url(#mask1_128_620)">
<path d="M63.9264 19.674C61.0194 15.306 57.6089 11.9005 53.9976 9.2414C69.1317 -1.89766 87.8154 0.147535 87.8154 0.147535C87.8154 0.147535 94.1113 19.5075 83.5986 37.1585C71.427 57.595 54.3374 59.0541 54.3374 59.0541C54.2293 59.0479 54.1149 59.0325 53.9976 59.014C59.898 58.0762 78.7115 41.8966 63.9264 19.671V19.674Z" fill="url(#paint10_linear_128_620)"/>
<path d="M44.0686 19.674C46.9756 15.306 50.3861 11.9005 53.9974 9.2414C38.8633 -1.89766 20.1795 0.147535 20.1795 0.147535C20.1795 0.147535 13.8837 19.5075 24.3964 37.1585C36.568 57.595 53.6576 59.0541 53.6576 59.0541C53.7657 59.0479 53.88 59.0325 53.9974 59.014C48.097 58.0762 29.2835 41.8966 44.0686 19.671V19.674Z" fill="url(#paint11_linear_128_620)"/>
<g filter="url(#filter3_d_128_620)">
<path d="M63.9262 19.674C61.0192 15.306 57.6087 11.9005 53.9974 9.24139C50.3861 11.9005 46.9725 15.306 44.0686 19.674C29.2835 41.8997 48.097 58.0793 53.9974 59.017C59.8978 58.0793 78.7113 41.8997 63.9262 19.674Z" fill="url(#paint12_linear_128_620)"/>
</g>
</g>
<defs>
<filter id="filter0_d_128_620" x="-3.13156" y="19.8309" width="97.9684" height="121.301" filterUnits="userSpaceOnUse" color-interpolation-filters="sRGB">
<feFlood flood-opacity="0" result="BackgroundImageFix"/>
<feColorMatrix in="SourceAlpha" type="matrix" values="0 0 0 0 0 0 0 0 0 0 0 0 0 0 0 0 0 0 127 0" result="hardAlpha"/>
<feOffset dx="3.13156" dy="-3.13156"/>
<feGaussianBlur stdDeviation="3.13156"/>
<feComposite in2="hardAlpha" operator="out"/>
<feColorMatrix type="matrix" values="0 0 0 0 0 0 0 0 0 0 0 0 0 0 0 0 0 0 0.15 0"/>
<feBlend mode="normal" in2="BackgroundImageFix" result="effect1_dropShadow_128_620"/>
<feBlend mode="normal" in="SourceGraphic" in2="effect1_dropShadow_128_620" result="shape"/>
</filter>
<filter id="filter1_d_128_620" x="-3.13156" y="26.8617" width="91.3978" height="120.533" filterUnits="userSpaceOnUse" color-interpolation-filters="sRGB">
<feFlood flood-opacity="0" result="BackgroundImageFix"/>
<feColorMatrix in="SourceAlpha" type="matrix" values="0 0 0 0 0 0 0 0 0 0 0 0 0 0 0 0 0 0 127 0" result="hardAlpha"/>
<feOffset dx="3.13156" dy="3.13156"/>
<feGaussianBlur stdDeviation="3.13156"/>
<feComposite in2="hardAlpha" operator="out"/>
<feColorMatrix type="matrix" values="0 0 0 0 0 0 0 0 0 0 0 0 0 0 0 0 0 0 0.25 0"/>
<feBlend mode="normal" in2="BackgroundImageFix" result="effect1_dropShadow_128_620"/>
<feBlend mode="normal" in="SourceGraphic" in2="effect1_dropShadow_128_620" result="shape"/>
</filter>
<filter id="filter2_d_128_620" x="12.2017" y="-3.48282" width="83.9032" height="71.5803" filterUnits="userSpaceOnUse" color-interpolation-filters="sRGB">
<feFlood flood-opacity="0" result="BackgroundImageFix"/>
<feColorMatrix in="SourceAlpha" type="matrix" values="0 0 0 0 0 0 0 0 0 0 0 0 0 0 0 0 0 0 127 0" result="hardAlpha"/>
<feOffset dy="3.13156"/>
<feGaussianBlur stdDeviation="3.13156"/>
<feComposite in2="hardAlpha" operator="out"/>
<feColorMatrix type="matrix" values="0 0 0 0 0 0 0 0 0 0 0 0 0 0 0 0 0 0 0.25 0"/>
<feBlend mode="normal" in2="BackgroundImageFix" result="effect1_dropShadow_128_620"/>
<feBlend mode="normal" in="SourceGraphic" in2="effect1_dropShadow_128_620" result="shape"/>
</filter>
<filter id="filter3_d_128_620" x="32.262" y="2.97827" width="43.4708" height="62.3019" filterUnits="userSpaceOnUse" color-interpolation-filters="sRGB">
<feFlood flood-opacity="0" result="BackgroundImageFix"/>
<feColorMatrix in="SourceAlpha" type="matrix" values="0 0 0 0 0 0 0 0 0 0 0 0 0 0 0 0 0 0 127 0" result="hardAlpha"/>
<feOffset/>
<feGaussianBlur stdDeviation="3.13156"/>
<feComposite in2="hardAlpha" operator="out"/>
<feColorMatrix type="matrix" values="0 0 0 0 0 0 0 0 0 0 0 0 0 0 0 0 0 0 0.1 0"/>
<feBlend mode="normal" in2="BackgroundImageFix" result="effect1_dropShadow_128_620"/>
<feBlend mode="normal" in="SourceGraphic" in2="effect1_dropShadow_128_620" result="shape"/>
</filter>
<linearGradient id="paint0_linear_128_620" x1="125.963" y1="62.1206" x2="143.612" y2="79.7995" gradientUnits="userSpaceOnUse">
<stop stop-color="#FFD54F"/>
<stop offset="1" stop-color="#FF9100"/>
</linearGradient>
<linearGradient id="paint1_linear_128_620" x1="127.26" y1="63.4151" x2="142.322" y2="78.5032" gradientUnits="userSpaceOnUse">
<stop stop-color="#FF9100"/>
<stop offset="1" stop-color="#FFD54F"/>
</linearGradient>
<linearGradient id="paint2_linear_128_620" x1="170" y1="58.428" x2="106.083" y2="107.95" gradientUnits="userSpaceOnUse">
<stop stop-color="#B08AFF"/>
<stop offset="1" stop-color="#4C259F"/>
</linearGradient>
<linearGradient id="paint3_linear_128_620" x1="151.921" y1="90.9413" x2="156.597" y2="90.9413" gradientUnits="userSpaceOnUse">
<stop stop-color="#B08AFF"/>
<stop offset="1" stop-color="#4C259F"/>
</linearGradient>
<linearGradient id="paint4_linear_128_620" x1="182" y1="133.797" x2="242.387" y2="68.306" gradientUnits="userSpaceOnUse">
<stop stop-color="#FD5900"/>
<stop offset="1" stop-color="#FFDE00"/>
</linearGradient>
<linearGradient id="paint5_linear_128_620" x1="208.5" y1="105.588" x2="208.5" y2="79.1497" gradientUnits="userSpaceOnUse">
<stop stop-color="#FFE59A"/>
<stop offset="1" stop-color="#FFFFD5"/>
</linearGradient>
<linearGradient id="paint6_linear_128_620" x1="45.6502" y1="59.0665" x2="67.3738" y2="120.456" gradientUnits="userSpaceOnUse">
<stop offset="0.03" stop-color="#3A138E"/>
<stop offset="1" stop-color="#210D4D"/>
</linearGradient>
<linearGradient id="paint7_linear_128_620" x1="45.6502" y1="59.4218" x2="67.3738" y2="120.811" gradientUnits="userSpaceOnUse">
<stop offset="0.03" stop-color="#3A138E"/>
<stop offset="1" stop-color="#210D4D"/>
</linearGradient>
<linearGradient id="paint8_linear_128_620" x1="85.4972" y1="126.77" x2="17.4141" y2="47.7723" gradientUnits="userSpaceOnUse">
<stop stop-color="#240762"/>
<stop offset="0.426013" stop-color="#47209B" stop-opacity="0.58"/>
<stop offset="1" stop-color="#2C0976"/>
</linearGradient>
<linearGradient id="paint9_linear_128_620" x1="1.25937e-06" y1="83.9966" x2="77.3398" y2="132.258" gradientUnits="userSpaceOnUse">
<stop offset="0.03" stop-color="#5227AE"/>
<stop offset="1" stop-color="#240762"/>
</linearGradient>
<linearGradient id="paint10_linear_128_620" x1="87.8556" y1="0.153707" x2="54.854" y2="37.0642" gradientUnits="userSpaceOnUse">
<stop offset="0.03" stop-color="#04AC5C"/>
<stop offset="1" stop-color="#005226"/>
</linearGradient>
<linearGradient id="paint11_linear_128_620" x1="19.8922" y1="0.153706" x2="53.8257" y2="33.3641" gradientUnits="userSpaceOnUse">
<stop offset="0.03" stop-color="#04AC5C"/>
<stop offset="1" stop-color="#005226"/>
</linearGradient>
<linearGradient id="paint12_linear_128_620" x1="53.9974" y1="9.23831" x2="53.9974" y2="57.6875" gradientUnits="userSpaceOnUse">
<stop stop-color="#05AD5C"/>
<stop offset="1" stop-color="#007994"/>
</linearGradient>
<clipPath id="clip0_128_620">
<rect width="55" height="49.814" fill="white" transform="translate(108.5 58.4279)"/>
</clipPath>
<clipPath id="clip1_128_620">
<rect width="30" height="29.9479" fill="white" transform="translate(193.5 77.395)"/>
</clipPath>
<clipPath id="clip2_128_620">
<rect width="30" height="29.9479" fill="white" transform="translate(172 26.9826)"/>
</clipPath>
</defs>
</svg>
