<svg width="24" height="24" viewBox="0 0 24 24" fill="none" xmlns="http://www.w3.org/2000/svg">
<path d="M11.9985 0.221344C5.373 0.221344 0 5.61534 0 12.2693C0 17.5913 3.438 22.1063 8.208 23.7008C8.808 23.8118 9.027 23.4398 9.027 23.1203C9.027 22.8338 9.0165 22.0763 9.0105 21.0713C5.673 21.7988 4.968 19.4558 4.968 19.4558C4.4235 18.0638 3.636 17.6933 3.636 17.6933C2.5455 16.9463 3.717 16.9613 3.717 16.9613C4.9215 17.0468 5.5545 18.2033 5.5545 18.2033C6.6255 20.0438 8.364 19.5128 9.048 19.2038C9.156 18.4253 9.4665 17.8943 9.81 17.5928C7.146 17.2883 4.344 16.2548 4.344 11.6393C4.344 10.3238 4.812 9.24834 5.58 8.40534C5.4555 8.10084 5.0445 6.87534 5.697 5.21784C5.697 5.21784 6.705 4.89384 8.997 6.45234C9.954 6.18534 10.98 6.05184 12.0015 6.04734C13.02 6.05334 14.0475 6.18534 15.006 6.45384C17.2965 4.89534 18.303 5.21934 18.303 5.21934C18.957 6.87834 18.546 8.10234 18.423 8.40684C19.1925 9.24984 19.656 10.3253 19.656 11.6408C19.656 16.2683 16.851 17.2868 14.178 17.5853C14.6085 17.9573 14.9925 18.6923 14.9925 19.8158C14.9925 21.4268 14.9775 22.7258 14.9775 23.1203C14.9775 23.4428 15.1935 23.8178 15.8025 23.6993C20.565 22.1033 24 17.5898 24 12.2693C24 5.61534 18.627 0.221344 11.9985 0.221344Z" fill="white"/>
</svg>
