<svg width="64" height="64" viewBox="0 0 64 64" fill="none" xmlns="http://www.w3.org/2000/svg">
<path d="M32 64C49.6731 64 64 49.6731 64 32C64 14.3269 49.6731 0 32 0C14.3269 0 0 14.3269 0 32C0 49.6731 14.3269 64 32 64Z" fill="#001223"/>
<g opacity="0.5">
<path d="M32 49C41.3888 49 49 41.3888 49 32C49 22.6112 41.3888 15 32 15C22.6112 15 15 22.6112 15 32C15 41.3888 22.6112 49 32 49Z" fill="url(#paint0_linear_125_509)"/>
<path d="M32 46C39.732 46 46 39.732 46 32C46 24.268 39.732 18 32 18C24.268 18 18 24.268 18 32C18 39.732 24.268 46 32 46Z" fill="white" fill-opacity="0.3"/>
<path d="M29 30C31.2091 30 33 28.2091 33 26C33 23.7909 31.2091 22 29 22C26.7909 22 25 23.7909 25 26C25 28.2091 26.7909 30 29 30Z" fill="white"/>
<path d="M29 29C30.6569 29 32 27.6569 32 26C32 24.3431 30.6569 23 29 23C27.3431 23 26 24.3431 26 26C26 27.6569 27.3431 29 29 29Z" fill="url(#paint1_linear_125_509)" fill-opacity="0.5"/>
<path d="M37 36C39.2091 36 41 34.2091 41 32C41 29.7909 39.2091 28 37 28C34.7909 28 33 29.7909 33 32C33 34.2091 34.7909 36 37 36Z" fill="white"/>
<path d="M37 35C38.6569 35 40 33.6569 40 32C40 30.3431 38.6569 29 37 29C35.3431 29 34 30.3431 34 32C34 33.6569 35.3431 35 37 35Z" fill="url(#paint2_linear_125_509)" fill-opacity="0.5"/>
<path d="M29 42C31.2091 42 33 40.2091 33 38C33 35.7909 31.2091 34 29 34C26.7909 34 25 35.7909 25 38C25 40.2091 26.7909 42 29 42Z" fill="white"/>
<path d="M29 41C30.6569 41 32 39.6569 32 38C32 36.3431 30.6569 35 29 35C27.3431 35 26 36.3431 26 38C26 39.6569 27.3431 41 29 41Z" fill="url(#paint3_linear_125_509)" fill-opacity="0.5"/>
</g>
<defs>
<linearGradient id="paint0_linear_125_509" x1="32" y1="49" x2="29.819" y2="15.1405" gradientUnits="userSpaceOnUse">
<stop stop-color="#393939"/>
<stop offset="1" stop-color="#8D8D8D"/>
</linearGradient>
<linearGradient id="paint1_linear_125_509" x1="29" y1="29" x2="28.6151" y2="23.0248" gradientUnits="userSpaceOnUse">
<stop stop-color="#393939"/>
<stop offset="1" stop-color="#8D8D8D"/>
</linearGradient>
<linearGradient id="paint2_linear_125_509" x1="37" y1="35" x2="36.6151" y2="29.0248" gradientUnits="userSpaceOnUse">
<stop stop-color="#393939"/>
<stop offset="1" stop-color="#8D8D8D"/>
</linearGradient>
<linearGradient id="paint3_linear_125_509" x1="29" y1="41" x2="28.6151" y2="35.0248" gradientUnits="userSpaceOnUse">
<stop stop-color="#393939"/>
<stop offset="1" stop-color="#8D8D8D"/>
</linearGradient>
</defs>
</svg>
