<svg width="44" height="44" viewBox="0 0 44 44" fill="none" xmlns="http://www.w3.org/2000/svg">
<rect width="44" height="44" rx="14" fill="#001223"/>
<path fill-rule="evenodd" clip-rule="evenodd" d="M14 32C12.8954 32 12 31.1046 12 30C12 28.8954 12.8954 28 14 28L30 28C31.1046 28 32 28.8954 32 30C32 31.1046 31.1046 32 30 32L14 32ZM14 16C12.8954 16 12 15.1046 12 14C12 12.8954 12.8954 12 14 12L30 12C31.1046 12 32 12.8954 32 14C32 15.1046 31.1046 16 30 16L14 16ZM12 22C12 23.1046 12.8954 24 14 24L30 24C31.1046 24 32 23.1046 32 22C32 20.8954 31.1046 20 30 20L14 20C12.8954 20 12 20.8954 12 22Z" fill="white"/>
</svg>
