<svg width="46" height="46" viewBox="0 0 46 46" fill="none" xmlns="http://www.w3.org/2000/svg">
<rect y="2" width="44" height="44" rx="14" fill="#214554"/>
<rect x="33" y="1" width="12" height="12" rx="6" fill="#05AC5C" stroke="#083040" stroke-width="2"/>
<path fill-rule="evenodd" clip-rule="evenodd" d="M23.7052 13.4252C23.7052 12.5616 22.9443 12 21.9997 12C21.0563 12 20.2951 12.5616 20.2948 13.4252C20.2948 13.9688 20.2741 14.3744 19.9209 14.4783C16.9084 15.3555 14.9768 17.4115 14.9768 20.0815V24.5692C14.9768 26.4466 14.2483 26.9567 13.287 27.63C13.1955 27.694 13.102 27.7595 13.0067 27.8278C11.4169 28.9649 11.7799 31.3325 13.6041 31.3309H30.3959C32.2201 31.3325 32.5831 28.9649 30.9933 27.8278C30.8986 27.76 30.8056 27.6949 30.7146 27.6313C29.7515 26.9574 29.0232 26.4478 29.0232 24.5692V20.0815C29.0232 17.4115 27.0916 15.3555 24.0791 14.4783C23.7249 14.3744 23.7052 13.9688 23.7052 13.4252ZM23.7314 35.5523C24.8035 34.9549 25.4636 34.0411 25.4636 32.8472H18.5371C18.5371 34.0411 19.1969 34.9549 20.2693 35.5523C21.3391 36.1492 22.6597 36.1492 23.7314 35.5523Z" fill="white"/>
</svg>
