<svg width="64" height="64" viewBox="0 0 64 64" fill="none" xmlns="http://www.w3.org/2000/svg">
<path d="M32 64C49.6731 64 64 49.6731 64 32C64 14.3269 49.6731 0 32 0C14.3269 0 0 14.3269 0 32C0 49.6731 14.3269 64 32 64Z" fill="#1B2E41"/>
<path fill-rule="evenodd" clip-rule="evenodd" d="M22 17C19.7909 17 18 18.7909 18 21V29C18 31.2091 19.7909 33 22 33H26C28.2091 33 30 31.2091 30 29V21C30 18.7909 28.2091 17 26 17H22ZM22 37C19.7909 37 18 38.7909 18 41V43C18 45.2091 19.7909 47 22 47H26C28.2091 47 30 45.2091 30 43V41C30 38.7909 28.2091 37 26 37H22ZM34 21C34 18.7909 35.7909 17 38 17H42C44.2091 17 46 18.7909 46 21V23C46 25.2091 44.2091 27 42 27H38C35.7909 27 34 25.2091 34 23V21ZM38 31C35.7909 31 34 32.7909 34 35V43C34 45.2091 35.7909 47 38 47H42C44.2091 47 46 45.2091 46 43V35C46 32.7909 44.2091 31 42 31H38Z" fill="url(#paint0_linear_125_490)"/>
<defs>
<linearGradient id="paint0_linear_125_490" x1="32" y1="47" x2="29.9394" y2="17.1422" gradientUnits="userSpaceOnUse">
<stop stop-color="#0056E0"/>
<stop offset="1" stop-color="#57C5E0"/>
</linearGradient>
</defs>
</svg>
