<svg width="34" height="34" viewBox="0 0 34 34" fill="none" xmlns="http://www.w3.org/2000/svg">
<path d="M17 34C26.3888 34 34 26.3888 34 17C34 7.61116 26.3888 0 17 0C7.61116 0 0 7.61116 0 17C0 26.3888 7.61116 34 17 34Z" fill="url(#paint0_linear_278_1818)"/>
<path d="M17 31C24.732 31 31 24.732 31 17C31 9.26801 24.732 3 17 3C9.26801 3 3 9.26801 3 17C3 24.732 9.26801 31 17 31Z" fill="white" fill-opacity="0.3"/>
<path d="M14 15C16.2091 15 18 13.2091 18 11C18 8.79086 16.2091 7 14 7C11.7909 7 10 8.79086 10 11C10 13.2091 11.7909 15 14 15Z" fill="white"/>
<path d="M14 14C15.6569 14 17 12.6569 17 11C17 9.34315 15.6569 8 14 8C12.3431 8 11 9.34315 11 11C11 12.6569 12.3431 14 14 14Z" fill="url(#paint1_linear_278_1818)" fill-opacity="0.5"/>
<path d="M22 21C24.2091 21 26 19.2091 26 17C26 14.7909 24.2091 13 22 13C19.7909 13 18 14.7909 18 17C18 19.2091 19.7909 21 22 21Z" fill="white"/>
<path d="M22 20C23.6569 20 25 18.6569 25 17C25 15.3431 23.6569 14 22 14C20.3431 14 19 15.3431 19 17C19 18.6569 20.3431 20 22 20Z" fill="url(#paint2_linear_278_1818)" fill-opacity="0.5"/>
<path d="M14 27C16.2091 27 18 25.2091 18 23C18 20.7909 16.2091 19 14 19C11.7909 19 10 20.7909 10 23C10 25.2091 11.7909 27 14 27Z" fill="white"/>
<path d="M14 26C15.6569 26 17 24.6569 17 23C17 21.3431 15.6569 20 14 20C12.3431 20 11 21.3431 11 23C11 24.6569 12.3431 26 14 26Z" fill="url(#paint3_linear_278_1818)" fill-opacity="0.5"/>
<defs>
<linearGradient id="paint0_linear_278_1818" x1="17" y1="34" x2="17" y2="-2.29717e-06" gradientUnits="userSpaceOnUse">
<stop stop-color="#017D91"/>
<stop offset="1" stop-color="#05AC5C"/>
</linearGradient>
<linearGradient id="paint1_linear_278_1818" x1="14" y1="14" x2="14" y2="8" gradientUnits="userSpaceOnUse">
<stop stop-color="#017D91"/>
<stop offset="1" stop-color="#05AC5C"/>
</linearGradient>
<linearGradient id="paint2_linear_278_1818" x1="22" y1="20" x2="22" y2="14" gradientUnits="userSpaceOnUse">
<stop stop-color="#017D91"/>
<stop offset="1" stop-color="#05AC5C"/>
</linearGradient>
<linearGradient id="paint3_linear_278_1818" x1="14" y1="26" x2="14" y2="20" gradientUnits="userSpaceOnUse">
<stop stop-color="#017D91"/>
<stop offset="1" stop-color="#05AC5C"/>
</linearGradient>
</defs>
</svg>
