<svg width="64" height="64" viewBox="0 0 64 64" fill="none" xmlns="http://www.w3.org/2000/svg">
<path d="M32 64C49.6731 64 64 49.6731 64 32C64 14.3269 49.6731 0 32 0C14.3269 0 0 14.3269 0 32C0 49.6731 14.3269 64 32 64Z" fill="#1B2E41"/>
<path d="M32 49C41.3888 49 49 41.3888 49 32C49 22.6112 41.3888 15 32 15C22.6112 15 15 22.6112 15 32C15 41.3888 22.6112 49 32 49Z" fill="url(#paint0_linear_128_794)"/>
<path d="M32 46C39.732 46 46 39.732 46 32C46 24.268 39.732 18 32 18C24.268 18 18 24.268 18 32C18 39.732 24.268 46 32 46Z" fill="white" fill-opacity="0.3"/>
<path fill-rule="evenodd" clip-rule="evenodd" d="M32.2786 23.0853C32.1101 22.9722 31.8899 22.9722 31.7214 23.0853L24.3642 28.0213C23.954 28.2965 24.1488 28.9365 24.6427 28.9365H39.3573C39.8512 28.9365 40.046 28.2965 39.6358 28.0213L32.2786 23.0853ZM26 30.4428C26 30.1667 26.2239 29.9428 26.5 29.9428H27.5C27.7761 29.9428 28 30.1667 28 30.4428V35.4809C28 35.7571 27.7761 35.9809 27.5 35.9809H26.5C26.2239 35.9809 26 35.7571 26 35.4809V30.4428ZM24 37.4873C24 37.2111 24.2239 36.9873 24.5 36.9873H39.5C39.7761 36.9873 40 37.2111 40 37.4873V38.5C40 38.7761 39.7761 39 39.5 39H24.5C24.2239 39 24 38.7761 24 38.5V37.4873ZM31 30.4428C31 30.1667 31.2239 29.9428 31.5 29.9428H32.5C32.7761 29.9428 33 30.1667 33 30.4428V35.4809C33 35.7571 32.7761 35.9809 32.5 35.9809H31.5C31.2239 35.9809 31 35.7571 31 35.4809V30.4428ZM36.5 29.9428C36.2239 29.9428 36 30.1667 36 30.4428V35.4809C36 35.7571 36.2239 35.9809 36.5 35.9809H37.5C37.7761 35.9809 38 35.7571 38 35.4809V30.4428C38 30.1667 37.7761 29.9428 37.5 29.9428H36.5Z" fill="white"/>
<defs>
<linearGradient id="paint0_linear_128_794" x1="29.2897" y1="24.3296" x2="36.0713" y2="43.5231" gradientUnits="userSpaceOnUse">
<stop stop-color="#7650C7"/>
<stop offset="1" stop-color="#3A138E"/>
</linearGradient>
</defs>
</svg>
