<svg width="34" height="34" viewBox="0 0 34 34" fill="none" xmlns="http://www.w3.org/2000/svg">
<path d="M17 34C26.3888 34 34 26.3888 34 17C34 7.61116 26.3888 0 17 0C7.61116 0 0 7.61116 0 17C0 26.3888 7.61116 34 17 34Z" fill="url(#paint0_linear_278_2019)"/>
<path d="M17 31C24.732 31 31 24.732 31 17C31 9.26801 24.732 3 17 3C9.26801 3 3 9.26801 3 17C3 24.732 9.26801 31 17 31Z" fill="white" fill-opacity="0.3"/>
<path fill-rule="evenodd" clip-rule="evenodd" d="M17.2786 8.08528C17.1101 7.97223 16.8899 7.97223 16.7214 8.08528L9.36416 13.0213C8.95397 13.2965 9.14878 13.9365 9.64273 13.9365H24.3573C24.8512 13.9365 25.046 13.2965 24.6358 13.0213L17.2786 8.08528ZM11 15.4428C11 15.1667 11.2239 14.9428 11.5 14.9428H12.5C12.7761 14.9428 13 15.1667 13 15.4428V20.4809C13 20.7571 12.7761 20.9809 12.5 20.9809H11.5C11.2239 20.9809 11 20.7571 11 20.4809V15.4428ZM9 22.4873C9 22.2111 9.22386 21.9873 9.5 21.9873H24.5C24.7761 21.9873 25 22.2111 25 22.4873V23.5C25 23.7761 24.7761 24 24.5 24H9.5C9.22386 24 9 23.7761 9 23.5V22.4873ZM16 15.4428C16 15.1667 16.2239 14.9428 16.5 14.9428H17.5C17.7761 14.9428 18 15.1667 18 15.4428V20.4809C18 20.7571 17.7761 20.9809 17.5 20.9809H16.5C16.2239 20.9809 16 20.7571 16 20.4809V15.4428ZM21.5 14.9428C21.2239 14.9428 21 15.1667 21 15.4428V20.4809C21 20.7571 21.2239 20.9809 21.5 20.9809H22.5C22.7761 20.9809 23 20.7571 23 20.4809V15.4428C23 15.1667 22.7761 14.9428 22.5 14.9428H21.5Z" fill="white"/>
<defs>
<linearGradient id="paint0_linear_278_2019" x1="14.2897" y1="9.3296" x2="21.0713" y2="28.5231" gradientUnits="userSpaceOnUse">
<stop stop-color="#7650C7"/>
<stop offset="1" stop-color="#3A138E"/>
</linearGradient>
</defs>
</svg>
