<svg width="34" height="34" viewBox="0 0 34 34" fill="none" xmlns="http://www.w3.org/2000/svg">
<path d="M32.6835 21.0789C32.6563 21.0614 29.95 19.3181 29.95 17C29.95 14.6623 32.6582 12.9375 32.6855 12.92C33.0726 12.6768 33.2458 12.2001 33.1038 11.7653C32.9617 11.3314 32.5668 11.0473 32.0842 11.0814C32.0609 11.0833 28.839 11.2643 27.477 9.38772C26.1034 7.49656 27.2786 4.50911 27.2922 4.47896C27.4615 4.05579 27.3214 3.56941 26.9517 3.30184C26.5821 3.03334 26.0782 3.0528 25.726 3.34268C25.7026 3.36314 23.2317 5.40697 21.0021 4.68323C18.7783 3.96142 17.9747 0.786892 17.9669 0.754816C17.8561 0.31226 17.4572 0 17 0H16.9981C16.5408 0.00099615 16.142 0.313256 16.0331 0.757805C16.0253 0.788951 15.2043 3.96733 12.9979 4.6833C10.7702 5.40511 8.29737 3.3632 8.27399 3.34275C7.92574 3.04995 7.4179 3.02949 7.04634 3.30191C6.6767 3.5714 6.53658 4.05778 6.70977 4.48195C6.72146 4.5111 7.88689 7.51223 6.52296 9.38778C5.14741 11.2809 1.94107 11.0804 1.91185 11.0814C1.4663 11.0503 1.0363 11.3334 0.894315 11.7692C0.754256 12.205 0.927387 12.6797 1.31648 12.921C1.34371 12.9385 4.05005 14.6818 4.05005 17C4.05005 19.3376 1.34179 21.0624 1.31456 21.0799C0.927387 21.3231 0.75419 21.7998 0.896241 22.2347C1.03829 22.6685 1.42154 22.9526 1.91577 22.9186C1.943 22.9225 5.16103 22.7357 6.52296 24.6122C7.89659 26.5034 6.7214 29.4908 6.70778 29.521C6.5385 29.9441 6.67863 30.4305 7.04827 30.6981C7.4179 30.9685 7.92381 30.9491 8.27399 30.6573C8.29737 30.6368 10.7721 28.591 12.9979 29.3167C15.2217 30.0385 16.0253 33.213 16.0331 33.2451C16.144 33.6877 16.5428 34 17.0001 34H17.002C17.4592 33.999 17.8581 33.6867 17.967 33.2422C17.9748 33.211 18.7958 30.0327 21.0021 29.3167C23.2299 28.589 25.7027 30.6368 25.7261 30.6573C26.0743 30.9491 26.5802 30.9705 26.9537 30.6981C27.3234 30.4286 27.4635 29.9422 27.2903 29.5181C27.2786 29.4889 26.1132 26.4878 27.4771 24.6122C28.8527 22.7181 32.0512 22.9156 32.0882 22.9186C32.5571 22.9692 32.9657 22.6666 33.1058 22.2308C33.2458 21.795 33.0727 21.3202 32.6835 21.0789Z" fill="url(#paint0_linear_31_14)"/>
<path d="M17 25.9653C21.9514 25.9653 25.9654 21.9514 25.9654 17C25.9654 12.0485 21.9514 8.03461 17 8.03461C12.0486 8.03461 8.03467 12.0485 8.03467 17C8.03467 21.9514 12.0486 25.9653 17 25.9653Z" fill="url(#paint1_linear_31_14)"/>
<defs>
<linearGradient id="paint0_linear_31_14" x1="17" y1="34" x2="17" y2="0" gradientUnits="userSpaceOnUse">
<stop stop-color="#FFE59A"/>
<stop offset="1" stop-color="#FFFFD5"/>
</linearGradient>
<linearGradient id="paint1_linear_31_14" x1="17" y1="25.9653" x2="17" y2="8.03461" gradientUnits="userSpaceOnUse">
<stop stop-color="#FD5900"/>
<stop offset="1" stop-color="#FFDE00"/>
</linearGradient>
</defs>
</svg>
