<svg width="67" height="52" viewBox="0 0 67 52" fill="none" xmlns="http://www.w3.org/2000/svg">
<path d="M56.3005 4.31791C51.9526 2.26917 47.3622 0.817457 42.6473 0C42.0085 1.2029 41.4289 2.43815 40.9106 3.70107C35.8905 2.89917 30.7804 2.89917 25.7603 3.70107C25.2338 2.43151 24.6339 1.1956 23.9638 0C19.2377 0.801071 14.6426 2.27504 10.3105 4.3796C1.68736 17.6418 -0.648078 30.5338 0.489697 43.3025C5.54176 47.1898 11.2169 50.1336 17.2569 52C18.6225 50.1178 19.8247 48.1157 20.8499 46.0166C18.8912 45.2801 17.0061 44.3505 15.2209 43.2408C15.7 42.8707 16.1191 42.5006 16.5982 42.1305C21.8388 44.6893 27.5659 46.0168 33.3654 46.0168C39.165 46.0168 44.892 44.6893 50.1326 42.1305C50.6117 42.5006 51.0309 42.8707 51.5099 43.2408C49.704 44.3511 47.799 45.2806 45.821 46.0166C46.8462 48.1157 48.0485 50.1178 49.414 52C55.449 50.1205 61.122 47.1778 66.1812 43.3025C67.4986 28.4982 63.7859 15.6679 56.3005 4.31791ZM22.2871 35.4069C18.9935 35.4069 16.3587 32.3227 16.3587 28.5599C16.3587 24.7972 18.9935 21.6512 22.2871 21.6512C25.5806 21.6512 28.2754 24.7355 28.2754 28.5599C28.2754 32.3843 25.6405 35.4069 22.2871 35.4069ZM44.324 35.4069C41.0304 35.4069 38.3956 32.3227 38.3956 28.5599C38.3956 24.7972 41.0304 21.6512 44.324 21.6512C47.6175 21.6512 50.3123 24.7355 50.2524 28.5599C50.1925 32.3843 47.6175 35.4069 44.324 35.4069Z" fill="#5D67CD"/>
</svg>
