<svg width="24" height="25" viewBox="0 0 24 25" fill="none" xmlns="http://www.w3.org/2000/svg">
<path d="M12 0.909058C5.37188 0.909058 0 6.28093 0 12.9091C0 19.5372 5.37188 24.9091 12 24.9091C18.6281 24.9091 24 19.5372 24 12.9091C24 6.28093 18.6281 0.909058 12 0.909058ZM19.5 7.22312L18.3047 8.36687C18.2016 8.44187 18.15 8.57312 18.1688 8.69968V17.1184C18.15 17.245 18.2016 17.3762 18.3047 17.4512L19.4719 18.595V18.8434H13.5891V18.5903L14.8031 17.4184C14.9203 17.3012 14.9203 17.2637 14.9203 17.0856V10.2887L11.55 18.8247H11.0953L7.17188 10.2887V16.0169C7.13906 16.2559 7.21875 16.4997 7.3875 16.6731L8.9625 18.5809V18.8341H4.5V18.5856L6.075 16.6778C6.24375 16.4997 6.31875 16.2512 6.27188 16.0122V9.39343C6.29063 9.21062 6.22031 9.02781 6.08438 8.90593L4.6875 7.22312V6.97H9.03281L12.3937 14.3247L15.3469 6.97H19.5V7.22312Z" fill="white"/>
</svg>
